<?xml version="1.0" encoding="utf-8"?>
<!-- Generator: Adobe Illustrator 18.0.0, SVG Export Plug-In . SVG Version: 6.00 Build 0)  -->
<!DOCTYPE svg PUBLIC "-//W3C//DTD SVG 1.1//EN" "http://www.w3.org/Graphics/SVG/1.1/DTD/svg11.dtd">
<svg version="1.1" xmlns="http://www.w3.org/2000/svg" xmlns:xlink="http://www.w3.org/1999/xlink" x="0px" y="0px"
	 viewBox="190 650 100 100" enable-background="new 190 650 100 100" xml:space="preserve">
<g id="beer">
	<g id="EFRBlt_1_" display="none">
		
			<image display="inline" overflow="visible" width="217" height="232" id="EFRBlt_2_" xlink:href="C098B015D6256AAD.jpg"  transform="matrix(0.4332 0 0 0.4332 192.9989 652.75)">
		</image>
	</g>
	<circle fill="none" stroke="#000000" stroke-width="2" stroke-miterlimit="10" cx="240" cy="700" r="40"/>
	<g>
		<path d="M240,699c0.6,0,1,0.4,1,1s-0.4,1-1,1s-1-0.4-1-1S239.4,699,240,699 M240,697c-1.7,0-3,1.3-3,3s1.3,3,3,3s3-1.3,3-3
			S241.7,697,240,697L240,697z"/>
	</g>
	<circle fill="none" stroke="#000000" stroke-width="2" stroke-miterlimit="10" cx="240" cy="685" r="7"/>
	<path fill="none" stroke="#000000" stroke-width="2" stroke-miterlimit="10" d="M241.2,675.3c-0.8-0.1-1.6-0.1-2.4,0l-5.7,0.8
		c-1.3,0.2-2.4,0.8-3.2,1.8l0,0c-1.1,1.2-1.6,2.8-1.3,4.4l2.5,21.5c0,0.4,0.4,3.6,0.7,4.2c1.2,2.4,7.9,2.8,8.2,2.8
		c0.4,0,7.6-0.4,8.8-2.8c0.3-0.6,0.3-3.8,0.3-4.2l2.6-21.4c0.2-1.6-0.3-3.3-1.4-4.5l0,0c-0.8-0.9-2-1.5-3.2-1.7L241.2,675.3z"/>
	<circle fill="none" stroke="#000000" stroke-width="2" stroke-miterlimit="10" cx="240" cy="700" r="35"/>
	<path fill="none" stroke="#000000" stroke-width="2" stroke-miterlimit="10" d="M248.6,708.2c-1.6,2.2-8.3,2.6-8.6,2.6
		c-0.4,0-6.9-0.4-8.2-2.8c-4.2,1.8-7.1,5.1-7.1,8.7c0,5.7,6.8,10.4,15.3,10.4s15.3-4.6,15.3-10.4
		C255.3,713.2,252.6,710.1,248.6,708.2z"/>
</g>
<g id="graphics">
</g>
<g id="photography">
</g>
<g id="github_1_">
</g>
<g id="linkedin_1_">
</g>
<g id="illustrator">
</g>
<g id="photoshop">
</g>
<g id="umbraco_1_">
</g>
<g id="mssql_1_">
</g>
<g id="dotnet_1_">
</g>
<g id="webpack_1_">
</g>
<g id="gulp_1_">
</g>
<g id="nodejs_1_">
</g>
<g id="js_1_">
</g>
<g id="css3">
</g>
<g id="html5_1_">
</g>
</svg>
