<?xml version="1.0" encoding="utf-8"?>
<!-- Generator: Adobe Illustrator 18.0.0, SVG Export Plug-In . SVG Version: 6.00 Build 0)  -->
<!DOCTYPE svg PUBLIC "-//W3C//DTD SVG 1.1//EN" "http://www.w3.org/Graphics/SVG/1.1/DTD/svg11.dtd">
<svg version="1.1" xmlns="http://www.w3.org/2000/svg" xmlns:xlink="http://www.w3.org/1999/xlink" x="0px" y="0px"
	 viewBox="-50 290 100 100" enable-background="new -50 290 100 100" xml:space="preserve">
<g id="beer">
</g>
<g id="graphics">
</g>
<g id="photography">
</g>
<g id="github_1_">
</g>
<g id="linkedin_1_">
</g>
<g id="illustrator">
</g>
<g id="photoshop">
</g>
<g id="umbraco_1_">
</g>
<g id="mssql_1_">
</g>
<g id="dotnet_1_">
	<g id="dotnet">
		<circle fill="#010101" cx="0.6" cy="339.4" r="44.4"/>
		<path fill="#6D6E71" d="M-30.1,307.5c-18.3,16.3-20,44.3-3.7,62.6c16.3,18.3,44.4,19.9,62.7,3.6c1.3-1.1,2.5-2.3,3.6-3.6
			L-30.1,307.5z"/>
		<path fill="#F1F2F2" d="M-33.5,352.2c-0.5,0-1-0.2-1.4-0.6c-0.4-0.4-0.6-0.9-0.6-1.4s0.2-1,0.6-1.4s0.9-0.6,1.4-0.6s1,0.2,1.4,0.6
			c0.4,0.4,0.6,0.9,0.6,1.4s-0.2,1-0.6,1.4C-32.5,352-33,352.2-33.5,352.2z"/>
		<path fill="#F1F2F2" d="M-5.9,351.9h-3.6l-13-20.2c-0.3-0.5-0.6-1-0.8-1.6h-0.1c0.1,1.2,0.2,2.3,0.1,3.5v18.3h-3v-25.3h3.8
			l12.6,19.8c0.5,0.8,0.9,1.4,1,1.7h0.1c-0.1-1.2-0.2-2.5-0.2-3.7v-17.8h3v25.3H-5.9z"/>
		<path fill="#F1F2F2" d="M14.1,351.9H0.6v-25.3h12.8v2.7H3.6v8.4h9.1v2.7H3.6v8.8H14L14.1,351.9z"/>
		<path fill="#F1F2F2" d="M33.9,329.3h-7.4v22.6h-3v-22.6h-7.3v-2.7h17.6v2.7H33.9z"/>
	</g>
</g>
<g id="webpack_1_">
</g>
<g id="gulp_1_">
</g>
<g id="nodejs_1_">
</g>
<g id="js_1_">
</g>
<g id="css3">
</g>
<g id="html5_1_">
</g>
</svg>
