<?xml version="1.0" encoding="utf-8"?>
<!-- Generator: Adobe Illustrator 18.0.0, SVG Export Plug-In . SVG Version: 6.00 Build 0)  -->
<!DOCTYPE svg PUBLIC "-//W3C//DTD SVG 1.1//EN" "http://www.w3.org/Graphics/SVG/1.1/DTD/svg11.dtd">
<svg version="1.1" xmlns="http://www.w3.org/2000/svg" xmlns:xlink="http://www.w3.org/1999/xlink" x="0px" y="0px"
	 viewBox="70 170 100 100" enable-background="new 70 170 100 100" xml:space="preserve">
<g id="beer">
</g>
<g id="graphics">
</g>
<g id="photography">
</g>
<g id="github_1_">
</g>
<g id="linkedin_1_">
</g>
<g id="illustrator">
</g>
<g id="photoshop">
</g>
<g id="umbraco_1_">
</g>
<g id="mssql_1_">
</g>
<g id="dotnet_1_">
</g>
<g id="webpack_1_">
</g>
<g id="gulp_1_">
	<g id="gulp">
		<g>
			<path d="M131,262.4l0.9-14.4l2.4-4.1c0,0-5.4,2.2-14.5,2.2s-14.4-2.2-14.4-2.2l2.7,4.4l0.9,14c0,1.5,4.9,2.7,11,2.7
				C126.1,265.1,131,263.9,131,262.4"/>
			<path d="M128.3,195.2l1.8-7.2l10-10.6l-2.6-2.3l-10.6,11.4l-2.1,8.6c-1.5-0.1-3.1-0.1-4.8-0.1c-11.2,0-20.3,1.3-20.3,2.8
				c0,1.6,9.1,2.8,20.3,2.8c11.2,0,20.3-1.3,20.3-2.8C140.3,196.6,135.3,195.6,128.3,195.2"/>
			<path d="M127.2,199.2c0,0-0.4,0.1-1.5,0.1c-1.2,0-2,0-2.3-0.3c-0.1-0.1-0.1-0.2-0.1-0.3c0-0.2,0.1-0.3,0.3-0.4l0.2,0.3
				c-0.1,0-0.1,0.1-0.1,0.1c0,0.2,1.2,0.3,2.1,0.3c0.9,0,2-0.1,2-0.2c0,0-0.1-0.1-0.2-0.1l0.2-0.3c0.2,0.1,0.4,0.2,0.4,0.5
				C128.1,199.1,127.6,199.2,127.2,199.2"/>
			<path d="M140.1,177.5c0.3-0.3-0.1-1-0.9-1.7c-0.7-0.6-1.5-0.9-1.8-0.6s0.1,1,0.9,1.7C139.1,177.5,139.9,177.8,140.1,177.5"/>
			<path d="M130.5,227.2c-0.2-2.3,5-5.6,3.7-5.7c-2.9,0.2-4.3,3.4-5.8,6.8c-0.5,1.2-2.4,6.5-3.6,5.9c-1.2-0.7,1.6-5,2.3-7.6
				c-0.9,0.7-4.2,3.2-5,0.8c-1.4,1.1-4.2,1.8-3.9-1.2c-0.7,1.3-2.3,3.1-4.3,2.3c-2.5-1,1.5-9.1,2.5-8.7c1,0.4-0.2,2.3-0.5,3
				c-0.7,1.6-1.5,3.6-1,4c0.9,0.7,3.4-2.6,3.5-2.7c0.5-0.6,1.8-4.6,2.9-4.2c1.1,0.5-2.7,5.8-1.3,6.8c0.3,0.2,1.4-0.1,2.1-0.9
				c0.5-0.5,0.3-1.6,1.8-5.2c1.5-3.6,2.9-8.1,3.9-7.8c1,0.3,0.2,2.6-0.2,3.5c-1.7,4-4.8,10.7-3.3,10.2c1.4-0.5,2.2-0.5,3.6-2.2
				c1.4-1.6,1.3-4.3,2.3-4.3c0.9,0.1,0.8,0.9,0.5,1.6c0.9-1,4.3-3.3,5.2-1.1c1,2.6-4.9,6.3-3.4,6.1c1.4-0.2,3.7-1.7,4.7-3l2.7-24.4
				c0,0-2.7,2.3-20.1,2.3s-19.9-2.2-19.9-2.2l2.3,22.3c1.2-3.5,4.1-10.6,8.7-10.3c2.1,0.1,4.9,4.1,2.5,4.3c-1,0.1-1.1-2-2.3-2.3
				c-0.9-0.2-2.1,0.5-2.8,1.2c-1.6,1.6-4.9,7.6-4.5,10.6c0.6,3.8,5.3-1.3,6.1-2.8c0.6-1.1,0.9-4.3,2.2-3.9c1.2,0.3-0.1,3.6-1,6.5
				c-1,3.3-1.5,6.7-2.8,6.3c-1.2-0.4,0.8-4.6,0.7-5.3c-1.2,1.1-3.3,3.8-6.1,2.5l1.4,13.7c0,0,3.8,3,15.3,3s15.5-3,15.5-3l1.8-16
				C135.4,227.6,130.8,230.1,130.5,227.2"/>
		</g>
	</g>
</g>
<g id="nodejs_1_">
</g>
<g id="js_1_">
</g>
<g id="css3">
</g>
<g id="html5_1_">
</g>
</svg>
