<?xml version="1.0" encoding="utf-8"?>
<!-- Generator: Adobe Illustrator 18.0.0, SVG Export Plug-In . SVG Version: 6.00 Build 0)  -->
<!DOCTYPE svg PUBLIC "-//W3C//DTD SVG 1.1//EN" "http://www.w3.org/Graphics/SVG/1.1/DTD/svg11.dtd">
<svg version="1.1" xmlns="http://www.w3.org/2000/svg" xmlns:xlink="http://www.w3.org/1999/xlink" x="0px" y="0px"
	 viewBox="-50 50 100 100" enable-background="new -50 50 100 100" xml:space="preserve">
<g id="beer">
</g>
<g id="graphics">
</g>
<g id="photography">
</g>
<g id="github_1_">
</g>
<g id="linkedin_1_">
</g>
<g id="illustrator">
</g>
<g id="photoshop">
</g>
<g id="umbraco_1_">
</g>
<g id="mssql_1_">
</g>
<g id="dotnet_1_">
</g>
<g id="webpack_1_">
</g>
<g id="gulp_1_">
</g>
<g id="nodejs_1_">
</g>
<g id="js_1_">
</g>
<g id="css3">
</g>
<g id="html5_1_">
	<g id="html5">
		<path d="M-39.7,55l7.2,81L0,145l32.5-9l7.2-81H-39.7z M26.3,130.8L0.2,138l0,0H0.1H0l0,0l-26.1-7.2l-6.2-69.2h64.7L26.3,130.8z
			 M12.2,101.6L11,114.5l-11.1,3l0,0l-11.1-3l-0.7-7.9h-10l1.4,15.6L0,127.8l0,0l0,0l0,0l20.3-5.6L23,91.7h-36.1L-14,81.5h38l0,0
			l0.9-9.9h-49.8l2.7,30L12.2,101.6L12.2,101.6z"/>
	</g>
</g>
</svg>
