<?xml version="1.0" encoding="utf-8"?>
<!-- Generator: Adobe Illustrator 18.0.0, SVG Export Plug-In . SVG Version: 6.00 Build 0)  -->
<!DOCTYPE svg PUBLIC "-//W3C//DTD SVG 1.1//EN" "http://www.w3.org/Graphics/SVG/1.1/DTD/svg11.dtd">
<svg version="1.1" xmlns="http://www.w3.org/2000/svg" xmlns:xlink="http://www.w3.org/1999/xlink" x="0px" y="0px"
	 viewBox="190 50 100 100" enable-background="new 190 50 100 100" xml:space="preserve">
<g id="beer">
</g>
<g id="graphics">
</g>
<g id="photography">
</g>
<g id="github_1_">
</g>
<g id="linkedin_1_">
</g>
<g id="illustrator">
</g>
<g id="photoshop">
</g>
<g id="umbraco_1_">
</g>
<g id="mssql_1_">
</g>
<g id="dotnet_1_">
</g>
<g id="webpack_1_">
</g>
<g id="gulp_1_">
</g>
<g id="nodejs_1_">
</g>
<g id="js_1_">
	<g id="js">
		<path fill="#010101" d="M195,55v90h90V55H195z M242.6,131.7c-1.3,2.7-3.9,4.5-6.8,5.3c-4.5,1.1-8.8,0.5-12.1-1.4
			c-2.2-1.4-3.9-3.3-5-5.7l6.8-4.2c0.1,0,0.3,0.4,0.5,0.8c0.9,1.4,1.6,2.5,3.2,3.2c1.4,0.5,4.7,0.8,5.8-1.7
			c0.7-1.3,0.5-5.5,0.5-10.2c0-7.3,0-14.6,0-21.8h8.5c0,7.9,0,15.4,0,23.1C244.1,123.9,244.5,128.2,242.6,131.7z M277.6,129.3
			c-3,10-19.3,10.4-25.8,3.7c-1.3-1.5-2.2-2.3-3.1-4.1c3.5-2,3.5-2,6.8-4c1.8,2.8,3.5,4.4,6.6,5c4.1,0.5,8.3-0.9,7.4-5.3
			c-1-3.6-8.5-4.5-13.6-8.3c-5.2-3.5-6.4-12-2.2-16.8c1.4-1.8,3.9-3.1,6.4-3.8l2.7-0.4c5.1-0.1,8.3,1.3,10.6,3.9
			c0.6,0.6,1.2,1.3,2.2,2.9c-2.7,1.7-2.7,1.7-6.6,4.2c-0.8-1.8-2.2-2.9-3.7-3.4c-2.2-0.7-5.1,0.1-5.7,2.4c-0.2,0.7-0.2,1.4,0.2,2.6
			c0.9,2.1,4,3,6.8,4.2c7.9,3.2,10.6,6.7,11.2,10.8C278.5,126.6,277.7,129,277.6,129.3z"/>
	</g>
</g>
<g id="css3">
</g>
<g id="html5_1_">
</g>
</svg>
