<?xml version="1.0" encoding="utf-8"?>
<!-- Generator: Adobe Illustrator 18.0.0, SVG Export Plug-In . SVG Version: 6.00 Build 0)  -->
<!DOCTYPE svg PUBLIC "-//W3C//DTD SVG 1.1//EN" "http://www.w3.org/Graphics/SVG/1.1/DTD/svg11.dtd">
<svg version="1.1" id="linkedin" xmlns="http://www.w3.org/2000/svg" xmlns:xlink="http://www.w3.org/1999/xlink" x="0px" y="0px"
	 viewBox="0 0 100 100" enable-background="new 0 0 100 100" xml:space="preserve">
<path id="_x3C_path_x3E_" fill="#FFFFFF" d="M95,59.7V93H75.7V62c0-7.8-2.8-13.1-9.8-13.1c-5.3,0-8.5,3.6-9.9,7.1
	c-0.5,1.2-0.6,3-0.6,4.7V93H36.1c0,0,0.3-52.6,0-58h19.3v8.2c0,0.1-0.1,0.1-0.1,0.2h0.1v-0.2c2.6-3.9,7.1-9.6,17.4-9.6
	C85.5,33.6,95,41.9,95,59.7z M15.9,7C9.3,7,5,11.3,5,17c0,5.6,4.2,10,10.7,10h0.1c6.7,0,10.9-4.5,10.9-10C26.6,11.3,22.5,7,15.9,7z
	 M6.1,93h19.3V35H6.1V93z"/>
</svg>
