<?xml version="1.0" encoding="utf-8"?>
<!-- Generator: Adobe Illustrator 18.0.0, SVG Export Plug-In . SVG Version: 6.00 Build 0)  -->
<!DOCTYPE svg PUBLIC "-//W3C//DTD SVG 1.1//EN" "http://www.w3.org/Graphics/SVG/1.1/DTD/svg11.dtd">
<svg version="1.1" xmlns="http://www.w3.org/2000/svg" xmlns:xlink="http://www.w3.org/1999/xlink" x="0px" y="0px"
	 viewBox="70 290 100 100" enable-background="new 70 290 100 100" xml:space="preserve">
<g id="beer">
</g>
<g id="graphics">
</g>
<g id="photography">
</g>
<g id="github_1_">
</g>
<g id="linkedin_1_">
</g>
<g id="illustrator">
</g>
<g id="photoshop">
</g>
<g id="umbraco_1_">
</g>
<g id="mssql_1_">
	<g id="mssql">
		<path fill="#010101" d="M120.3,310.6c-3.9-0.6-8-15.6-7.9-15.6c-2.9,0.8-26.1,7.7-17.1,13.7c15,10,14.3,30.2-7.9,47.1
			c-31.2,23.7,30.9,30.5,31.8,29c15.4-25.9,8.2-45,8.2-45s18.1-5.9,33.7-8.2C163,331.3,152.1,315.1,120.3,310.6L120.3,310.6
			L120.3,310.6z M144.8,319.8c0,0-11.1,3.1-16.3,5.8c0,0,2.9-9,2.8-10.5C131.3,315.1,142.5,318.2,144.8,319.8L144.8,319.8
			L144.8,319.8z M126.1,325.6c0,0-5.1-3-6.9-3.5l10.9-7C130,315.1,130,318.9,126.1,325.6L126.1,325.6L126.1,325.6z M116.9,343
			l9.2,5.5c-1.4,1.3-10.2,5.4-10.2,5.4C117.2,350.8,116.9,343,116.9,343L116.9,343L116.9,343z M118.3,342.6l7.9-2.7
			c0.7,2.8,0.5,7.3,0.5,7.3C124.5,346.3,118.3,342.6,118.3,342.6L118.3,342.6L118.3,342.6z M99.4,360.6c0,0,7.1-12.1,6.9-13.4
			c0,0,0.8,3.3,6,8C112.3,355.3,108.5,357.9,99.4,360.6L99.4,360.6L99.4,360.6z M111.8,357.7c0,0-1.4,6.6-4.8,11.7c0,0-5-2-8.6-6.8
			C98.3,362.6,110.4,358.6,111.8,357.7L111.8,357.7L111.8,357.7z M114.1,323.3c0,0-4,3.9-6.5,6.2c0,0-0.1-8.6-0.7-8.9
			C106.9,320.6,111.9,321.9,114.1,323.3L114.1,323.3z M107.6,318.2l6.9-6c0,0,1.8,2,1.3,8.8C115.9,320.9,109.5,318.6,107.6,318.2
			L107.6,318.2L107.6,318.2z M115,325.1c0,0-1.1,5.7-3.8,9.1c0,0-2.5-2.2-3.6-2.9C107.6,331.3,114.3,325.7,115,325.1L115,325.1
			L115,325.1z M110.5,338c0,0,1.9,1.2,1.7,4.3c0,0-13,5.9-15,7.2C97.3,349.5,109.8,339.2,110.5,338L110.5,338L110.5,338z
			 M107.6,346.6l7-2.9c0,0,1,4.8-1.2,10.2C113.4,353.9,109.8,351.9,107.6,346.6L107.6,346.6L107.6,346.6z M114.1,341.8
			c0,0-0.8-5.3-1.8-6.1c0,0,4.5-2.2,11.2-6.1C123.5,329.6,115,340.4,114.1,341.8L114.1,341.8z M114.6,332.4c0,0,2.5-6.8,2.4-8.3
			l6.5,3.5L114.6,332.4z M127.8,314.7c-0.7,0.3-10.8,6-10.8,6c1.5-4.7-1.1-8.5-1.1-8.5L127.8,314.7L127.8,314.7z M117,310.2
			l-7.2-1.1l5.4-3.3L117,310.2z M101.1,301.2c0.6-0.5,10.8-5.1,10.8-5.1s2.9,7.2,2,7.2S100.5,301.7,101.1,301.2L101.1,301.2
			L101.1,301.2z M114.1,304.7l-6.5,4H106c0,0-6-6.1-6.2-6.7C99.8,302,112.5,304.9,114.1,304.7L114.1,304.7L114.1,304.7z M98.6,302.7
			l4.5,5.3c0,0-7.1-1.6-7.6-2.2C94.9,305.2,98.6,302.7,98.6,302.7L98.6,302.7z M97.8,308.7l4.5,1.5l1.7,5.5
			C104,315.7,99.7,310,97.8,308.7L97.8,308.7L97.8,308.7z M103.5,310.2l9.9,1.4l-7.4,5.6C106,316,103.5,310.2,103.5,310.2
			L103.5,310.2L103.5,310.2z M106.4,334.1c0,0,1.8,0.5,2.6,1.5c0,0-3,2.7-5.5,4.2C103.5,339.9,106.3,335.1,106.4,334.1L106.4,334.1
			L106.4,334.1z M100.2,344.1c0,0,3.8-3.5,8.2-5.4l-12.3,10.8L100.2,344.1L100.2,344.1z M102.9,348.5c0,0-3,8.5-6,11.4
			c0,0-1.3-1.7-1.5-7.7C95.4,352.2,101.6,348.9,102.9,348.5L102.9,348.5L102.9,348.5z M92.8,353.3c0,0-0.2,3.3,2.1,8.6
			c0,0-11.5,3.6-13.4,3.6C81.4,365.5,82.7,358.2,92.8,353.3L92.8,353.3z M81.4,366.4c3.4,0,12.9-2.7,12.9-2.7
			c-0.5,1.9-7.7,11.3-7.7,11.3C80.9,371.1,81.4,366.4,81.4,366.4L81.4,366.4L81.4,366.4z M87.4,375.5l8.7-11.1c0,0,3.8,3.6,7.9,5.9
			l-16.1,5.8L87.4,375.5L87.4,375.5z M88.9,376.3l16.4-4.4l-5.9,8.9C99.4,380.8,92.7,379.8,88.9,376.3L88.9,376.3L88.9,376.3z
			 M107.6,371.9c0,0,6.8,3,13.8,3.1c0,0-16.5,6.4-21.3,6.6C100.2,381.6,107.7,372.5,107.6,371.9L107.6,371.9L107.6,371.9z
			 M118.3,384.5c0,0-11.5-1-14.9-2.9c0,0,10.1-1.9,18.4-5.4C121.9,376.1,119.4,383.2,118.3,384.5L118.3,384.5L118.3,384.5z
			 M121.9,374.5c0,0-11.6-2.1-13.4-4.2c0,0,16.1-6.5,16.7-7.6C125.1,362.6,123.8,372,121.9,374.5L121.9,374.5L121.9,374.5z
			 M109.5,368.1l5.2-10.9c0,0,7.6,4,10.5,4.6C125.1,361.8,112.1,368.2,109.5,368.1L109.5,368.1L109.5,368.1z M125.6,360.6
			c-4.6-1.1-9.6-5-9.6-5c2.2-0.6,10.9-5.8,10.9-5.8C127.5,355.5,125.6,360.6,125.6,360.6L125.6,360.6z M116.5,340.8
			c0,0,9.1-10.1,9.6-11.3c0,0,5.7,2.8,7.6,5.8C133.7,335.3,118.9,339.9,116.5,340.8L116.5,340.8z M128.6,327c0,0,15.8-6,17.3-6.1
			c0,0-3.9,7.3-10.4,13.7C135.5,334.7,131.9,329,128.6,327L128.6,327L128.6,327z M138.2,334.1c0,0,7.8-9.1,9.4-13.2
			c0,0,10.4,6.9,12,10.1C159.6,331.1,142.3,332.5,138.2,334.1L138.2,334.1L138.2,334.1z"/>
	</g>
</g>
<g id="dotnet_1_">
</g>
<g id="webpack_1_">
</g>
<g id="gulp_1_">
</g>
<g id="nodejs_1_">
</g>
<g id="js_1_">
</g>
<g id="css3">
</g>
<g id="html5_1_">
</g>
</svg>
