<?xml version="1.0" encoding="utf-8"?>
<!-- Generator: Adobe Illustrator 18.0.0, SVG Export Plug-In . SVG Version: 6.00 Build 0)  -->
<!DOCTYPE svg PUBLIC "-//W3C//DTD SVG 1.1//EN" "http://www.w3.org/Graphics/SVG/1.1/DTD/svg11.dtd">
<svg version="1.1" xmlns="http://www.w3.org/2000/svg" xmlns:xlink="http://www.w3.org/1999/xlink" x="0px" y="0px"
	 viewBox="-50 170 100 100" enable-background="new -50 170 100 100" xml:space="preserve">
<g id="beer">
</g>
<g id="graphics">
</g>
<g id="photography">
</g>
<g id="github_1_">
</g>
<g id="linkedin_1_">
</g>
<g id="illustrator">
</g>
<g id="photoshop">
</g>
<g id="umbraco_1_">
</g>
<g id="mssql_1_">
</g>
<g id="dotnet_1_">
</g>
<g id="webpack_1_">
</g>
<g id="gulp_1_">
</g>
<g id="nodejs_1_">
	<g id="nodejs">
		<g>
			<path d="M0.1,265c-1.2,0-2.4-0.3-3.5-0.9l-11-6.5c-1.7-0.9-0.8-1.2-0.3-1.4c2.2-0.7,2.6-0.9,5-2.2c0.2-0.2,0.6-0.1,0.8,0.1l8.4,5
				c0.3,0.2,0.7,0.2,1,0l33-19.1c0.3-0.2,0.5-0.5,0.5-0.9v-38.2c0-0.4-0.2-0.7-0.5-0.9l-33-19c-0.3-0.2-0.7-0.2-1,0l-33,19
				c-0.3,0.2-0.5,0.6-0.5,0.9V239c0,0.3,0.2,0.7,0.5,0.9l9,5.2c4.9,2.5,7.9-0.4,7.9-3.3v-37.6c0-0.5,0.4-1,1-1h4.2c0.5,0,1,0.4,1,1
				v37.6c0,6.5-3.6,10.3-9.8,10.3c-1.9,0-3.4,0-7.6-2.1l-8.7-5c-2.1-1.2-3.5-3.6-3.5-6v-38c0-2.5,1.3-4.8,3.5-6l33-19.1
				c2.1-1.2,4.9-1.2,6.9,0l33,19.1c2.1,1.2,3.5,3.6,3.5,6v38.1c0,2.5-1.3,4.8-3.5,6l-33,19.1C2.5,264.8,1.3,265,0.1,265L0.1,265z
				 M10.3,238.8c-14.5,0-17.4-6.6-17.4-12.2c0-0.5,0.4-1,1-1h4.2c0.5,0,0.9,0.3,0.9,0.8c0.7,4.4,2.6,6.5,11.3,6.5
				c6.9,0,9.9-1.6,9.9-5.3c0-2.1-0.8-3.7-11.7-4.8c-9-0.9-14.6-2.9-14.6-10.1c0-6.7,5.6-10.7,15-10.7c10.6,0,15.8,3.6,16.5,11.6
				c0,0.2-0.1,0.5-0.2,0.7c-0.2,0.2-0.4,0.3-0.7,0.3h-4.3c-0.4,0-0.8-0.3-0.9-0.7c-1-4.5-3.6-6-10.3-6c-7.6,0-8.5,2.6-8.5,4.6
				c0,2.4,1.1,3.1,11.3,4.5c10.2,1.3,15,3.2,15,10.3C26.7,234.7,20.8,238.8,10.3,238.8L10.3,238.8z"/>
		</g>
	</g>
</g>
<g id="js_1_">
</g>
<g id="css3">
</g>
<g id="html5_1_">
</g>
</svg>
