<?xml version="1.0" encoding="utf-8"?>
<!-- Generator: Adobe Illustrator 18.0.0, SVG Export Plug-In . SVG Version: 6.00 Build 0)  -->
<!DOCTYPE svg PUBLIC "-//W3C//DTD SVG 1.1//EN" "http://www.w3.org/Graphics/SVG/1.1/DTD/svg11.dtd">
<svg version="1.1" xmlns="http://www.w3.org/2000/svg" xmlns:xlink="http://www.w3.org/1999/xlink" x="0px" y="0px"
	 viewBox="-50 650 100 100" enable-background="new -50 650 100 100" xml:space="preserve">
<g id="beer">
</g>
<g id="graphics">
</g>
<g id="photography">
	<polygon display="none" fill="none" stroke="#000000" stroke-width="2" stroke-miterlimit="10" points="8.6,696.5 8.6,703.5 
		3.5,708.6 -3.5,708.6 -8.6,703.5 -8.6,696.5 -3.5,691.4 3.5,691.4 	"/>
	<path fill="none" stroke="#000000" stroke-width="2" stroke-miterlimit="10" d="M45,698.6c0-0.1,0-0.3,0-0.4c0-0.7-0.1-1.4-0.1-2
		c0-0.3-0.1-0.7-0.1-1c0-0.2,0-0.4-0.1-0.6c-0.1-0.5-0.1-1-0.2-1.5c-0.1-0.5-0.2-1.1-0.3-1.6c-0.1-0.6-0.2-1.1-0.3-1.7
		c-0.1-0.4-0.2-0.7-0.3-1.1c-0.1-0.3-0.2-0.6-0.2-0.9c-0.1-0.3-0.2-0.6-0.3-0.9c-0.1-0.3-0.2-0.6-0.3-1c0,0,0-0.1,0-0.1
		c-0.1-0.2-0.1-0.4-0.2-0.6c0-0.1,0-0.2-0.1-0.2c-0.1-0.2-0.1-0.4-0.2-0.5c-0.3-0.8-0.6-1.6-1-2.4c-0.2-0.4-0.3-0.7-0.5-1.1
		c-0.2-0.4-0.3-0.7-0.5-1.1c-0.2-0.4-0.4-0.7-0.5-1.1c-0.2-0.3-0.4-0.7-0.6-1c-0.2-0.3-0.3-0.6-0.5-0.9c-0.2-0.3-0.3-0.5-0.5-0.8
		c0-0.1-0.1-0.2-0.2-0.2c-0.2-0.4-0.5-0.8-0.8-1.2l0,0c0-0.1-0.1-0.2-0.2-0.2c-0.1-0.2-0.3-0.4-0.4-0.6c-0.2-0.2-0.3-0.5-0.5-0.7
		c-0.2-0.2-0.4-0.5-0.5-0.7c-0.2-0.3-0.4-0.5-0.6-0.8c-0.1-0.1-0.2-0.3-0.3-0.4c-0.1-0.1-0.2-0.3-0.3-0.4c-0.2-0.2-0.4-0.4-0.6-0.7
		c-0.6-0.7-1.2-1.3-1.8-1.9c-0.1-0.1-0.2-0.2-0.4-0.4c-0.3-0.3-0.7-0.7-1-1c-0.3-0.3-0.7-0.6-1.1-1c-0.1-0.1-0.2-0.2-0.2-0.2
		c-0.1-0.1-0.2-0.1-0.2-0.2c-0.2-0.2-0.5-0.4-0.7-0.6c-0.3-0.2-0.6-0.5-0.8-0.7c-0.3-0.2-0.6-0.5-0.9-0.7c-0.2-0.2-0.4-0.3-0.7-0.5
		c-0.9-0.6-1.7-1.2-2.6-1.7c-0.4-0.2-0.8-0.5-1.2-0.7c-0.5-0.3-0.9-0.5-1.4-0.8c-0.4-0.2-0.8-0.4-1.3-0.6c-0.3-0.2-0.6-0.3-0.9-0.4
		c-0.4-0.2-0.9-0.4-1.3-0.6c-0.2-0.1-0.4-0.2-0.6-0.3c-0.2-0.1-0.4-0.2-0.7-0.3c-0.3-0.1-0.6-0.2-0.9-0.3c-0.1,0-0.2-0.1-0.4-0.1
		c-0.4-0.1-0.8-0.3-1.2-0.4c-0.4-0.1-0.7-0.2-1.1-0.3c0,0,0,0-0.1,0c-0.1,0-0.2,0-0.3-0.1v0c-0.2-0.1-0.4-0.1-0.7-0.2
		c-0.4-0.1-0.9-0.2-1.3-0.3c-0.5-0.1-1.1-0.2-1.6-0.3C5.8,655.3,2.9,655,0,655c-8,0-15.6,2.1-22.1,5.8c-0.2,0.1-0.4,0.2-0.5,0.3
		c-0.4,0.2-0.8,0.5-1.2,0.7c0,0-0.1,0.1-0.2,0.1c-0.4,0.3-0.8,0.5-1.3,0.8c-0.4,0.2-0.7,0.5-1.1,0.8c0,0,0,0-0.1,0
		c-0.3,0.3-0.7,0.5-1,0.8c-0.7,0.5-1.4,1.1-2.1,1.7c-0.3,0.2-0.6,0.5-0.9,0.8c-0.4,0.4-0.8,0.7-1.2,1.1c-0.3,0.2-0.5,0.5-0.8,0.8
		c-0.3,0.3-0.6,0.6-0.8,0.9c-0.3,0.3-0.5,0.6-0.8,0.9c-0.7,0.8-1.4,1.7-2.1,2.6c-0.2,0.2-0.4,0.5-0.5,0.7c-0.3,0.3-0.5,0.7-0.7,1.1
		c-0.3,0.4-0.5,0.8-0.8,1.1c-0.3,0.5-0.6,0.9-0.9,1.4c-0.2,0.3-0.3,0.6-0.5,0.8c-0.1,0.2-0.2,0.3-0.3,0.5c-0.2,0.3-0.3,0.5-0.4,0.8
		c-0.2,0.4-0.4,0.7-0.5,1.1c-0.2,0.5-0.4,0.9-0.7,1.4c-0.5,1.2-0.9,2.3-1.3,3.5c-0.1,0.4-0.3,0.8-0.4,1.2c-0.1,0.2-0.1,0.4-0.2,0.6
		c0,0.2-0.1,0.4-0.2,0.6h0c0,0.1-0.1,0.2-0.1,0.4c0,0.1,0,0.2-0.1,0.3c-0.1,0.2-0.1,0.4-0.2,0.7c0,0,0,0.1,0,0.2
		c0,0.2-0.1,0.3-0.1,0.5c-0.1,0.5-0.2,1.1-0.3,1.6c-0.1,0.3-0.1,0.7-0.2,1c-0.1,0.3-0.1,0.7-0.2,1c0,0.2-0.1,0.4-0.1,0.6
		c0,0.4-0.1,0.9-0.2,1.3c0,0.5-0.1,1-0.1,1.5c0,0.5-0.1,1-0.1,1.5c0,0.5,0,1,0,1.6c0,0.5,0,1,0,1.5c0,0.6,0,1.3,0.1,1.9
		c0,0.5,0.1,1,0.1,1.5c0,0.2,0,0.4,0.1,0.5c0,0.4,0.1,0.8,0.2,1.2c0,0.1,0,0.2,0.1,0.3c0.1,0.5,0.2,1,0.3,1.5
		c0.2,0.9,0.4,1.8,0.6,2.7c0,0.1,0,0.1,0,0.2c0,0.2,0.1,0.4,0.2,0.7c0,0.1,0,0.2,0.1,0.2c0.2,0.7,0.4,1.4,0.7,2.1
		c0.1,0.2,0.2,0.4,0.2,0.6c0.2,0.5,0.3,1,0.5,1.4l0,0c0.2,0.4,0.4,0.9,0.6,1.3c0.3,0.7,0.6,1.3,0.9,2c0.2,0.4,0.4,0.8,0.6,1.2
		c0,0,0,0,0,0c0.2,0.4,0.4,0.7,0.6,1.1c0.5,0.8,0.9,1.6,1.5,2.4c0.1,0.2,0.3,0.5,0.5,0.7l0,0c0.2,0.4,0.5,0.8,0.8,1.1
		c0.5,0.7,1,1.4,1.6,2.1c0.3,0.4,0.7,0.8,1,1.2c0.7,0.8,1.4,1.5,2.1,2.3c1.7,1.6,3.4,3.1,5.2,4.5c0.3,0.3,0.7,0.5,1.1,0.8
		c0.6,0.4,1.2,0.8,1.8,1.2c0.4,0.3,0.9,0.5,1.3,0.8c0.5,0.3,1,0.5,1.5,0.8c0.5,0.2,0.9,0.5,1.4,0.7c0.5,0.2,1,0.5,1.5,0.7
		c0.5,0.2,1,0.4,1.5,0.6c1.1,0.4,2.2,0.8,3.4,1.2c0.3,0.1,0.6,0.2,0.9,0.3v0c0.1,0,0.2,0.1,0.4,0.1c0.3,0.1,0.6,0.2,0.9,0.2
		c0.1,0,0.1,0,0.2,0c0.2,0.1,0.4,0.1,0.6,0.2c0.2,0,0.4,0.1,0.6,0.1c0.3,0.1,0.5,0.1,0.8,0.2c0.3,0.1,0.6,0.1,0.9,0.2
		c0.4,0.1,0.8,0.1,1.2,0.2c0.2,0,0.4,0.1,0.7,0.1c0.4,0.1,0.8,0.1,1.2,0.2c0.5,0,1,0.1,1.5,0.1c0.5,0,1,0.1,1.5,0.1
		c0.5,0,1.1,0,1.6,0c0.5,0,1,0,1.5,0c0.2,0,0.5,0,0.7,0c0.9,0,1.8-0.1,2.7-0.2c0.2,0,0.4,0,0.5-0.1c0.5-0.1,1.1-0.1,1.7-0.2
		c0.5-0.1,1-0.2,1.4-0.2c0.6-0.1,1.1-0.2,1.6-0.4c0.4-0.1,0.9-0.2,1.3-0.3c0.3-0.1,0.6-0.1,0.9-0.2c0.7-0.2,1.4-0.4,2.1-0.7
		c0.1,0,0.2-0.1,0.2-0.1c0.1,0,0.3-0.1,0.4-0.2c1.4-0.5,2.8-1.1,4.1-1.7c0.2-0.1,0.4-0.2,0.6-0.3c0.8-0.4,1.5-0.8,2.3-1.2
		c0.8-0.5,1.6-0.9,2.4-1.5c0.1-0.1,0.2-0.1,0.3-0.2c0.1-0.1,0.3-0.2,0.4-0.3c0.4-0.2,0.8-0.5,1.1-0.8c1.9-1.4,3.8-3,5.5-4.7
		c0.4-0.4,0.8-0.8,1.2-1.2c0.3-0.4,0.7-0.7,1-1.1c0.2-0.2,0.4-0.4,0.6-0.7c1.7-2,3.2-4.2,4.5-6.5c0.3-0.5,0.5-1,0.8-1.5
		c0.2-0.5,0.5-0.9,0.7-1.4c0,0,0-0.1,0-0.1c0.2-0.4,0.4-0.8,0.5-1.1v0c0.1-0.3,0.3-0.6,0.4-0.9c0.2-0.6,0.5-1.2,0.7-1.8
		c0.1-0.3,0.2-0.6,0.3-0.8c0.2-0.6,0.4-1.1,0.5-1.7c0.1-0.3,0.2-0.6,0.3-0.9h0c0-0.1,0.1-0.2,0.1-0.4c0.1-0.3,0.2-0.6,0.2-0.9
		c0-0.1,0-0.1,0-0.2c0.1-0.2,0.1-0.4,0.2-0.6c0-0.2,0.1-0.4,0.1-0.6c0.1-0.3,0.1-0.5,0.2-0.8c0.1-0.3,0.1-0.6,0.2-0.9
		c0.1-0.4,0.1-0.8,0.2-1.2c0-0.2,0.1-0.4,0.1-0.7c0.1-0.5,0.1-0.9,0.2-1.4c0-0.5,0.1-0.9,0.1-1.4c0-0.5,0.1-1,0.1-1.5
		c0-0.5,0-1.1,0-1.6C45,699.5,45,699,45,698.6z M39.1,708.6c-2.3,10.5-8.7,19.5-17.5,25.1c-6.2,4-13.6,6.3-21.6,6.3
		c-2.9,0-5.8-0.3-8.6-0.9c-10.5-2.3-19.5-8.7-25.1-17.5c-4-6.2-6.3-13.6-6.3-21.6c0-2.9,0.3-5.8,0.9-8.6
		c2.3-10.5,8.7-19.5,17.5-25.1c6.2-4,13.6-6.3,21.6-6.3c2.9,0,5.8,0.3,8.6,0.9c10.5,2.3,19.5,8.7,25.1,17.5c4,6.2,6.3,13.6,6.3,21.6
		C40,702.9,39.7,705.8,39.1,708.6z"/>
	<path fill="none" stroke="#000000" stroke-width="2" stroke-miterlimit="10" d="M8.6,660.9l0,30.5v5L0,687.9l-21.6-21.6
		c6.2-4,13.6-6.3,21.6-6.3C2.9,660,5.8,660.3,8.6,660.9z"/>
	<path fill="none" stroke="#000000" stroke-width="2" stroke-miterlimit="10" d="M3.5,691.4H-8.6l-30.5,0
		c2.3-10.5,8.7-19.5,17.5-25.1L0,687.9L3.5,691.4z"/>
	<path fill="none" stroke="#000000" stroke-width="2" stroke-miterlimit="10" d="M-3.5,691.4l-8.6,8.6l-21.6,21.6
		c-4-6.2-6.3-13.6-6.3-21.6c0-2.9,0.3-5.8,0.9-8.6l30.5,0H-3.5z"/>
	<path fill="none" stroke="#000000" stroke-width="2" stroke-miterlimit="10" d="M-8.6,696.5v12.1l0,30.5
		c-10.5-2.3-19.5-8.7-25.1-17.5l21.6-21.6L-8.6,696.5z"/>
	<path fill="none" stroke="#000000" stroke-width="2" stroke-miterlimit="10" d="M21.6,733.7c-6.2,4-13.6,6.3-21.6,6.3
		c-2.9,0-5.8-0.3-8.6-0.9l0-30.5v-5l8.6,8.6L21.6,733.7z"/>
	<path fill="none" stroke="#000000" stroke-width="2" stroke-miterlimit="10" d="M39.1,708.6c-2.3,10.5-8.7,19.5-17.5,25.1L0,712.1
		l-3.5-3.5H8.6L39.1,708.6z"/>
	<path fill="none" stroke="#000000" stroke-width="2" stroke-miterlimit="10" d="M40,700c0,2.9-0.3,5.8-0.9,8.6l-30.5,0h-5l8.6-8.6
		l21.6-21.6C37.7,684.7,40,692.1,40,700z"/>
	<path fill="none" stroke="#000000" stroke-width="2" stroke-miterlimit="10" d="M33.7,678.4L12.1,700l-3.5,3.5v-12.1l0-30.5
		C19.1,663.2,28.1,669.6,33.7,678.4z"/>
	<path fill="none" stroke="#000000" stroke-width="2" stroke-miterlimit="10" d="M40,700c0,2.9-0.3,5.8-0.9,8.6
		c-2.3,10.5-8.7,19.5-17.5,25.1c-6.2,4-13.6,6.3-21.6,6.3c-2.9,0-5.8-0.3-8.6-0.9c-10.5-2.3-19.5-8.7-25.1-17.5
		c-4-6.2-6.3-13.6-6.3-21.6c0-2.9,0.3-5.8,0.9-8.6c2.3-10.5,8.7-19.5,17.5-25.1c6.2-4,13.6-6.3,21.6-6.3c2.9,0,5.8,0.3,8.6,0.9
		c10.5,2.3,19.5,8.7,25.1,17.5C37.7,684.7,40,692.1,40,700z"/>
</g>
<g id="github_1_">
</g>
<g id="linkedin_1_">
</g>
<g id="illustrator">
</g>
<g id="photoshop">
</g>
<g id="umbraco_1_">
</g>
<g id="mssql_1_">
</g>
<g id="dotnet_1_">
</g>
<g id="webpack_1_">
</g>
<g id="gulp_1_">
</g>
<g id="nodejs_1_">
</g>
<g id="js_1_">
</g>
<g id="css3">
</g>
<g id="html5_1_">
</g>
</svg>
