<?xml version="1.0" encoding="utf-8"?>
<!-- Generator: Adobe Illustrator 18.0.0, SVG Export Plug-In . SVG Version: 6.00 Build 0)  -->
<!DOCTYPE svg PUBLIC "-//W3C//DTD SVG 1.1//EN" "http://www.w3.org/Graphics/SVG/1.1/DTD/svg11.dtd">
<svg version="1.1" xmlns="http://www.w3.org/2000/svg" xmlns:xlink="http://www.w3.org/1999/xlink" x="0px" y="0px"
	 viewBox="190 290 100 100" enable-background="new 190 290 100 100" xml:space="preserve">
<g id="beer">
</g>
<g id="graphics">
</g>
<g id="photography">
</g>
<g id="github_1_">
</g>
<g id="linkedin_1_">
</g>
<g id="illustrator">
</g>
<g id="photoshop">
</g>
<g id="umbraco_1_">
	<g id="umbraco">
		<path d="M195,340c0-24.9,20.1-45,45-45s45,20.1,45,45s-20.1,45-45,45S195,364.9,195,340z M239,355.4c-4.4,0-7.9-0.3-10.4-0.9
			c-2.7-0.7-4.6-2.2-5.7-4.6c-1.1-2.3-1.6-6-1.5-10.9c0-2.7,0.2-5.1,0.5-7.6c0.3-2.5,0.6-4.5,0.9-6.1l0.3-1.6c0-0.1,0-0.1,0-0.2
			c0-0.4-0.3-0.8-0.7-0.9l-5.8-0.9c-0.1,0-0.1,0-0.2,0c-0.4,0-0.8,0.3-0.9,0.7s-0.2,0.7-0.3,1.5c-0.3,1.7-0.7,3.4-1,5.8
			c-0.3,2.4-0.6,5.1-0.7,8c0,0-0.2,0.7,0,5.6s1,8.9,2.6,11.8c1.6,2.9,4.1,5.1,7.9,6.4c3.7,1.3,8.9,1.9,15.5,1.9h0.8
			c6.6,0,11.8-0.6,15.5-1.9c3.7-1.3,6.4-3.4,7.9-6.4c1.6-3,2.4-6.9,2.6-11.8c0.2-4.9,0-5.6,0-5.6c-0.1-2.9-0.3-5.6-0.7-8
			c-0.3-2.4-0.7-4.1-1-5.8c-0.2-0.9-0.2-1.2-0.3-1.5c-0.1-0.4-0.5-0.7-0.9-0.7c-0.1,0-0.1,0-0.2,0l-5.8,0.9
			c-0.4,0.1-0.7,0.4-0.7,0.9c0,0.1,0,0.1,0,0.2l0.3,1.6c0.3,1.6,0.6,3.6,0.9,6.1c0.3,2.5,0.4,5,0.5,7.6c0.1,4.9-0.4,8.5-1.5,10.9
			c-1.1,2.3-2.9,3.9-5.7,4.6c-2.5,0.7-6,0.9-10.4,0.9H239z"/>
	</g>
</g>
<g id="mssql_1_">
</g>
<g id="dotnet_1_">
</g>
<g id="webpack_1_">
</g>
<g id="gulp_1_">
</g>
<g id="nodejs_1_">
</g>
<g id="js_1_">
</g>
<g id="css3">
</g>
<g id="html5_1_">
</g>
</svg>
