<?xml version="1.0" encoding="utf-8"?>
<!-- Generator: Adobe Illustrator 18.0.0, SVG Export Plug-In . SVG Version: 6.00 Build 0)  -->
<!DOCTYPE svg PUBLIC "-//W3C//DTD SVG 1.1//EN" "http://www.w3.org/Graphics/SVG/1.1/DTD/svg11.dtd">
<svg version="1.1" xmlns="http://www.w3.org/2000/svg" xmlns:xlink="http://www.w3.org/1999/xlink" x="0px" y="0px"
	 viewBox="190 170 100 100" enable-background="new 190 170 100 100" xml:space="preserve">
<g id="beer">
</g>
<g id="graphics">
</g>
<g id="photography">
</g>
<g id="github_1_">
</g>
<g id="linkedin_1_">
</g>
<g id="illustrator">
</g>
<g id="photoshop">
</g>
<g id="umbraco_1_">
</g>
<g id="mssql_1_">
</g>
<g id="dotnet_1_">
</g>
<g id="webpack_1_">
	<g id="webpack">
		<path fill="#6D6E71" d="M278,244.4L241.5,265v-16.1l22.7-12.5L278,244.4z M280.5,242.1V199l-13.3,7.7v27.7L280.5,242.1z
			 M201.9,244.4l36.4,20.6v-16.1l-22.7-12.5L201.9,244.4z M199.4,242.1V199l13.3,7.7v27.7L199.4,242.1z M200.9,196.2l37.4-21.2v15.5
			l-24,13.2l-0.2,0.1L200.9,196.2z M278.9,196.2L241.5,175v15.5l24,13.2l0.2,0.1L278.9,196.2z"/>
		<path d="M238.3,245.3l-22.4-12.4v-24.4l22.4,12.9C238.3,221.5,238.3,245.3,238.3,245.3z M241.5,245.3l22.5-12.4v-24.4l-22.5,13
			V245.3z M217.4,205.7l22.5-12.4l22.5,12.4l-22.5,13L217.4,205.7z"/>
	</g>
</g>
<g id="gulp_1_">
</g>
<g id="nodejs_1_">
</g>
<g id="js_1_">
</g>
<g id="css3">
</g>
<g id="html5_1_">
</g>
</svg>
